# xmcd CD database file
#
# Track frame offsets:
#	150
#	27369
#	55188
#	89150
#	123666
#	151809
#	178660
#	207286
#	233907
#
# Disc length: 3491 seconds
#
# Revision: 0
# Processed by: cddbd v1.5.2PL0 Copyright (c) Steve Scherf et al.
# Submitted via: CDex 1.70beta2
#
DISCID=790da109
DTITLE=cms trio Colina Miralta Sambeat - andando
DYEAR=2009
DGENRE=Jazz
TTITLE0=Andando
TTITLE1=Gnawa blues
TTITLE2=Verdad amarga
TTITLE3=Malawi
TTITLE4=Pata Pata
TTITLE5=You and the night and the music
TTITLE6=Lejana
TTITLE7=Certeza
TTITLE8=Bugalusers
EXTD=YEAR: 2009
EXTT0=
EXTT1=
EXTT2=
EXTT3=
EXTT4=
EXTT5=
EXTT6=
EXTT7=
EXTT8=
PLAYORDER=
